{"glyphs":{"C":{"ha":796,"x_min":25,"x_max":903,"o":"m 624 692 q 625 601 608 638 q 700 564 642 564 q 808 592 758 564 q 888 675 867 622 q 903 932 949 825 q 708 1058 857 1039 q 447 1010 568 1072 q 242 849 346 972 q 69 556 126 714 q 25 193 1 368 q 186 -50 43 4 q 367 -81 282 -86 q 621 4 501 -72 q 650 28 635 15 q 683 108 710 75 q 653 129 656 113 q 654 167 651 146 q 654 207 657 188 q 613 238 651 226 q 549 245 575 250 q 504 229 524 240 q 465 206 485 218 q 412 192 444 193 q 350 213 379 192 q 319 413 279 264 q 351 499 331 453 q 401 585 372 544 q 459 658 431 625 q 539 718 488 690 q 568 728 553 722 q 594 733 583 733 q 624 692 624 733 "},"E":{"ha":728,"x_min":10,"x_max":825,"o":"m 314 175 q 307 200 301 175 q 386 372 321 261 q 442 376 432 375 q 462 381 449 378 q 511 392 475 385 q 599 458 568 413 q 642 541 631 504 q 634 582 654 578 q 581 581 614 586 q 510 572 549 576 q 446 579 472 567 l 451 610 q 475 669 458 642 q 511 728 492 697 q 561 772 526 756 q 661 804 579 781 q 767 856 725 814 q 824 944 810 897 q 820 1030 839 992 q 743 1069 801 1068 q 286 981 575 1096 q 257 951 264 972 q 249 904 250 931 q 245 850 247 878 q 232 800 243 822 q 138 599 179 694 q 10 13 10 304 q 128 -89 6 -67 q 333 -96 239 -103 q 490 -67 390 -92 q 599 17 553 -43 q 622 60 617 40 q 614 85 626 81 q 588 106 590 93 q 586 131 585 118 q 583 157 588 144 q 554 178 579 169 q 434 167 474 167 q 314 175 394 167 "},"H":{"ha":817,"x_min":-47,"x_max":967,"o":"m 332 303 l 344 325 q 408 356 369 340 q 440 367 424 361 q 471 380 456 372 q 497 390 486 388 q 518 399 507 393 q 487 303 506 354 q 436 160 468 251 q 390 -10 404 69 q 403 -84 378 -60 q 467 -112 429 -108 q 543 -101 506 -115 q 592 -62 581 -87 l 596 -62 q 618 -35 604 -40 q 647 -23 632 -29 q 675 -1 661 -17 q 708 97 689 14 q 786 419 726 181 q 967 985 839 626 q 958 1064 990 1035 q 872 1092 929 1092 q 693 969 728 1086 q 606 658 644 828 q 599 635 599 642 q 482 622 563 640 q 408 614 438 613 l 447 706 q 485 800 464 747 q 556 981 506 853 q 553 1049 569 1025 q 504 1079 538 1072 q 428 1077 471 1086 q 345 1047 385 1068 q 276 994 306 1026 q 243 922 247 963 q 166 717 203 814 q 73 450 129 619 q -47 0 17 281 q -6 -92 -65 -64 q 55 -104 21 -103 q 121 -97 89 -106 q 178 -69 153 -87 q 217 -20 204 -51 q 240 53 229 11 q 265 133 251 94 l 332 303 m 489 396 q 503 400 494 397 q 489 396 490 396 "},"L":{"ha":649,"x_min":-21,"x_max":644,"o":"m 481 -67 q 581 13 553 -46 q 575 108 610 72 q 547 137 561 122 q 535 176 533 151 q 476 194 511 194 q 406 187 442 194 q 338 169 371 179 q 288 158 306 160 q 282 168 281 163 q 394 397 338 292 q 500 597 451 503 q 587 778 549 692 q 644 950 625 864 q 572 1058 654 1038 q 408 1039 499 1076 q 301 950 315 1003 q 288 920 301 949 q 256 853 274 892 q 215 761 239 814 q 81 442 156 643 q 24 281 49 357 q -17 154 -1 206 q -19 81 -33 103 q -5 57 -14 69 q 11 14 4 44 q 69 -69 26 -51 q 111 -78 89 -78 q 156 -76 133 -78 q 297 -79 250 -79 q 372 -78 344 -79 q 425 -76 399 -76 q 481 -67 451 -75 "},"N":{"ha":875,"x_min":-25,"x_max":978,"o":"m 94 539 q -25 13 -10 179 q 6 -51 -46 -35 q 111 -44 53 -67 q 197 29 179 -21 q 226 69 214 54 q 260 132 238 85 q 339 360 283 179 q 369 194 347 344 q 397 60 382 108 q 460 -33 424 -31 q 550 -33 518 -39 q 628 4 575 -28 q 728 181 667 21 q 785 335 756 250 q 842 501 814 419 q 899 656 871 583 q 953 778 926 729 q 975 892 979 828 q 969 933 972 915 q 977 969 965 950 q 977 1007 989 989 q 936 1031 965 1025 q 781 1004 864 1046 q 654 858 685 956 q 600 719 643 811 q 569 648 585 683 q 540 581 553 613 q 510 776 526 707 q 442 963 497 824 q 375 988 407 988 q 314 969 343 988 q 259 920 285 951 q 212 851 233 889 q 174 774 190 814 q 140 683 157 733 q 94 539 122 632 "},"O":{"ha":888,"x_min":42,"x_max":915,"o":"m 282 919 q 42 418 108 718 q 193 -62 -39 53 q 338 -106 251 -101 q 576 -37 476 -114 q 689 64 639 3 q 915 549 851 263 q 906 921 967 779 q 888 964 897 944 q 876 993 879 983 q 749 1078 824 1064 q 615 1039 667 1093 q 476 1044 550 1063 q 282 919 369 1019 m 299 182 q 390 450 311 301 q 485 604 425 514 q 599 764 544 694 q 560 414 613 603 q 413 108 507 225 q 388 85 401 94 q 360 64 374 75 q 328 92 347 69 q 300 158 308 115 l 297 174 l 299 182 "},"R":{"ha":808,"x_min":-32,"x_max":889,"o":"m 243 -4 l 236 -4 q 289 149 265 75 q 324 244 308 207 q 381 156 356 207 q 404 97 390 132 q 444 21 418 63 q 569 -21 488 -44 q 600 -38 589 -28 q 622 -56 611 -49 q 694 -42 649 -69 q 729 57 751 -11 q 699 122 719 88 q 652 192 678 157 q 601 260 626 226 q 557 321 575 293 l 543 344 q 771 510 674 382 q 844 635 815 568 q 885 769 874 703 q 889 895 896 835 q 853 1000 882 956 q 774 1067 825 1044 q 658 1083 722 1090 q 521 1056 593 1075 q 451 1035 485 1046 q 392 1010 418 1024 q 331 953 367 997 q 53 375 192 779 q -32 25 -40 106 q 28 -57 -40 -28 q 157 -72 89 -85 q 243 -4 231 -60 m 524 804 q 536 814 528 804 q 606 860 578 863 q 631 817 636 847 q 624 789 629 803 q 619 761 619 775 q 564 657 596 689 q 526 629 547 640 q 481 604 506 618 l 457 593 l 438 574 q 444 617 440 586 q 488 721 468 674 q 524 804 497 744 "},"S":{"ha":767,"x_min":-42,"x_max":879,"o":"m 231 -81 q 428 -47 344 -81 q 656 144 589 17 q 668 443 746 315 q 616 507 646 479 q 559 557 586 535 q 512 599 532 579 q 489 636 492 618 q 524 744 476 719 q 678 757 564 765 q 789 799 757 767 q 803 854 806 817 q 847 869 826 856 q 878 906 868 883 q 854 1004 903 956 q 799 1044 826 1025 q 732 1071 771 1064 q 504 1067 617 1092 q 353 1004 447 1053 q 219 889 271 960 q 171 797 190 849 q 144 665 151 744 q 177 519 138 586 q 286 400 217 451 q 324 367 301 383 q 364 333 346 350 q 400 265 408 294 q 286 193 388 226 q 233 185 264 183 q 119 203 201 186 q -25 168 11 226 q -42 73 -51 119 q 5 -8 -32 26 q 101 -63 42 -43 q 231 -81 160 -83 "},"T":{"ha":697,"x_min":104,"x_max":871,"o":"m 484 356 q 557 570 522 465 q 617 749 592 675 q 628 756 618 754 q 672 763 639 758 q 722 776 704 767 q 773 804 757 781 q 797 856 789 828 q 813 910 806 885 q 836 947 819 936 q 870 994 871 968 q 849 1043 869 1021 q 794 1078 828 1065 q 728 1086 760 1092 q 442 1039 608 1089 q 226 947 281 990 q 181 908 200 926 q 138 833 143 874 q 188 719 126 746 q 282 708 229 701 q 244 601 258 642 q 219 529 229 561 q 201 465 210 497 q 181 383 193 432 q 151 258 169 333 q 104 63 133 182 q 176 -106 60 -87 q 217 -108 197 -107 q 258 -103 238 -110 q 297 -76 278 -96 q 342 -5 317 -57 q 407 147 368 47 q 465 302 446 247 q 484 356 484 356 m 296 724 l 296 722 q 293 723 293 722 q 296 724 293 724 "},"U":{"ha":951,"x_min":63,"x_max":1032,"o":"m 476 1006 q 475 1008 475 1007 l 475 1010 q 474 1012 474 1011 q 473 1013 474 1013 q 472 1014 472 1013 l 472 1015 q 469 1017 471 1015 l 469 1018 q 468 1019 469 1019 l 468 1022 l 467 1024 q 466 1025 467 1025 q 465 1026 465 1025 l 461 1032 l 457 1036 l 446 1046 q 443 1047 443 1046 q 374 1064 414 1069 l 365 1064 l 346 1060 q 322 1050 333 1057 q 315 1047 318 1047 q 310 1043 313 1046 l 293 1028 q 253 964 276 1011 q 235 930 243 947 q 208 867 226 913 q 149 718 189 821 q 81 507 108 615 q 63 99 14 254 q 117 15 78 50 q 207 -42 157 -21 q 411 -54 314 -83 q 447 -36 428 -46 q 515 44 518 -3 q 517 14 517 29 q 568 -56 519 -42 q 653 -59 608 -68 q 735 -21 699 -50 q 774 53 772 8 q 886 506 815 265 q 943 693 915 607 q 1003 883 971 779 q 1032 1015 1036 988 q 1011 1069 1031 1049 q 965 1094 992 1089 q 908 1090 938 1100 q 856 1054 878 1081 q 744 1028 790 1078 q 710 976 724 1007 q 683 915 696 944 q 479 519 585 700 q 331 376 346 288 q 415 725 324 501 q 488 975 501 935 l 479 997 l 478 997 l 478 1000 q 477 1001 478 1001 q 476 1003 476 1001 l 476 1006 m 514 81 l 514 79 q 513 74 513 78 q 514 85 513 83 l 514 81 "},"c":{"ha":618,"x_min":31,"x_max":657,"o":"m 569 682 q 236 608 379 706 q 40 358 106 521 q 31 54 -28 185 q 103 -36 57 -3 q 197 -73 149 -69 q 294 -69 246 -76 q 528 63 458 -49 q 533 136 564 104 q 492 158 519 150 q 421 162 465 165 q 339 188 376 158 q 310 244 307 214 q 339 319 322 289 q 365 356 349 338 q 404 394 381 375 q 455 419 428 414 q 507 428 482 424 q 553 443 532 432 q 583 483 574 454 q 631 513 610 485 q 657 577 653 542 q 642 644 661 613 q 569 682 624 675 "},"e":{"ha":669,"x_min":4,"x_max":653,"o":"m 485 206 q 594 289 558 243 q 653 450 631 336 q 644 586 665 538 q 494 681 603 678 q 300 643 393 683 q 154 531 219 608 q 44 364 79 442 q 4 72 -32 197 q 126 -54 32 -22 q 317 -74 192 -83 q 428 -58 372 -69 q 525 -29 483 -47 q 587 14 567 -11 q 594 67 607 39 q 574 99 581 94 q 561 103 567 103 q 549 107 556 103 q 531 136 542 111 q 472 160 503 161 q 408 148 440 158 q 345 126 375 138 q 290 118 315 114 q 249 151 253 138 q 375 172 288 154 q 433 186 408 179 q 485 206 458 193 m 404 425 q 399 387 408 411 q 369 339 389 363 q 269 286 317 281 q 289 342 276 315 q 404 425 331 440 "},"h":{"ha":821,"x_min":-22,"x_max":782,"o":"m 753 149 q 762 234 750 188 q 782 326 774 281 q 747 493 803 438 q 583 551 674 567 q 505 522 542 544 q 445 475 468 499 q 410 433 422 451 q 381 400 399 414 q 407 498 394 458 q 425 557 419 538 l 442 606 q 466 681 453 640 q 491 758 479 722 q 509 808 503 793 q 528 853 515 822 q 556 919 542 883 q 585 989 571 954 q 608 1049 600 1024 q 519 1114 603 1101 q 446 1113 485 1118 q 377 1091 407 1107 q 333 1048 347 1075 q 332 985 318 1021 q 292 917 321 967 q 264 869 278 892 q 142 613 206 775 q -22 89 38 346 q -14 19 -31 51 q 33 -35 3 -14 q 185 -57 106 -82 q 219 -42 193 -57 q 242 -31 231 -36 q 265 -17 253 -25 q 289 -7 278 -8 q 307 -2 300 -6 q 325 63 314 1 q 407 188 358 139 q 503 250 433 214 q 497 193 499 226 q 519 50 496 160 q 542 15 535 26 q 573 -17 549 3 q 632 -49 597 -36 q 698 -62 667 -62 q 750 -42 729 -61 q 771 21 771 -24 q 753 149 753 75 "},"l":{"ha":408,"x_min":-17,"x_max":578,"o":"m 273 54 q 290 121 282 83 q 313 208 299 158 q 578 988 431 639 q 549 1053 581 1017 q 526 1083 536 1068 q 518 1115 517 1097 q 399 1094 447 1139 q 367 1058 379 1078 q 344 1025 354 1038 q 100 454 199 771 q 32 215 58 324 q -17 29 6 106 q 0 -39 -29 -26 q 24 -47 11 -44 q 42 -62 38 -49 q 108 -100 44 -114 q 167 -76 136 -93 q 219 -39 197 -58 q 253 3 242 -19 q 268 40 264 25 q 273 54 273 54 "},"n":{"ha":906,"x_min":-17,"x_max":903,"o":"m 232 601 q 203 604 214 611 q 158 544 193 597 q 93 389 143 519 q -17 -46 -49 18 q 25 -76 -1 -65 q 203 -85 104 -110 q 269 -37 264 -69 q 276 -19 272 -22 q 287 -15 281 -17 q 302 -6 293 -12 q 323 19 311 0 q 351 68 335 39 q 385 131 367 97 q 424 200 404 165 q 518 344 493 326 q 556 383 529 367 q 599 388 586 401 q 593 299 614 369 q 550 178 571 249 q 497 21 529 107 q 514 -34 485 -17 q 588 -48 543 -51 q 680 -22 633 -44 q 749 42 726 0 q 806 135 788 96 q 824 181 814 156 q 854 249 835 207 q 903 517 914 411 q 775 665 889 642 q 553 642 688 683 q 374 542 425 601 l 374 549 q 357 603 374 583 q 232 601 325 639 "},"o":{"ha":728,"x_min":15,"x_max":713,"o":"m 194 593 q 76 430 129 549 q 17 194 22 311 q 65 0 8 63 q 189 -71 114 -56 q 260 -78 224 -78 q 342 -78 297 -79 q 442 -65 386 -76 q 547 -8 497 -53 q 703 247 657 88 q 713 514 746 392 q 614 642 696 597 q 527 671 576 663 q 443 674 478 679 q 389 667 408 668 q 283 601 314 664 q 267 603 275 601 q 194 593 224 614 m 439 314 q 424 178 449 238 q 388 122 411 146 q 339 90 365 99 q 257 88 313 82 q 257 159 242 124 q 296 228 272 194 q 315 240 296 225 q 347 272 335 254 q 374 304 358 289 q 439 314 404 303 "},"r":{"ha":551,"x_min":-15,"x_max":606,"o":"m 144 575 l 97 404 q 72 327 90 378 q 21 177 54 276 q -15 18 -12 78 q 47 -86 -24 -67 q 185 -61 110 -104 q 275 49 264 -17 q 350 328 308 229 q 408 426 375 386 q 490 476 440 465 q 568 518 539 488 q 606 581 597 549 q 603 639 614 613 q 568 669 592 665 q 542 719 588 717 q 492 711 521 719 q 413 681 463 703 q 336 632 363 658 q 322 675 343 661 q 267 683 300 689 q 199 651 235 676 q 144 575 164 625 "},"s":{"ha":703,"x_min":-50,"x_max":661,"o":"m 501 -33 q 533 -8 515 -22 q 603 89 610 50 q 586 306 643 208 q 438 450 544 376 q 447 457 447 454 q 558 488 443 471 q 661 574 650 511 q 653 631 665 601 q 622 679 642 660 q 555 701 601 699 q 451 695 508 704 q 335 667 393 686 q 247 626 276 647 q 199 588 218 606 q 132 468 128 522 q 124 422 124 447 q 131 374 124 397 q 171 307 144 321 q 253 246 192 274 q 302 224 278 235 q 343 197 326 213 q 89 154 333 147 q 67 142 74 154 q 54 117 60 131 q 41 94 49 104 q 17 85 33 83 q -26 79 -8 90 q -50 49 -43 68 q -19 -46 -64 1 q 83 -107 18 -87 q 224 -125 149 -126 q 373 -101 299 -124 q 501 -33 447 -78 "},"t":{"ha":606,"x_min":15,"x_max":714,"o":"m 376 1039 q 300 867 328 967 q 279 782 288 824 q 263 700 271 740 q 242 697 246 700 q 237 694 240 696 q 206 685 233 692 q 139 661 179 678 q 74 640 118 653 q 24 599 36 625 q 15 547 11 572 q 38 503 19 522 q 78 482 56 483 l 79 482 q 129 494 108 483 q 168 500 140 500 q 63 -29 89 213 q 68 -64 57 -49 q 111 -96 79 -79 q 192 -115 143 -112 q 205 -112 193 -114 q 228 -104 217 -110 q 325 108 258 -87 q 365 230 346 167 q 403 352 385 293 q 438 462 422 411 q 468 546 454 513 l 468 547 l 476 557 q 649 593 528 560 q 692 614 675 594 q 714 656 708 633 q 713 701 719 679 q 682 733 706 724 q 642 742 658 742 l 622 742 q 596 744 611 742 q 551 739 571 742 q 535 736 543 738 q 514 732 526 735 q 523 742 518 739 q 535 763 528 744 l 581 858 q 603 905 594 888 q 619 936 613 922 q 631 966 625 950 q 647 1015 638 982 q 638 1078 657 1047 q 590 1126 619 1108 q 529 1145 560 1143 q 489 1128 499 1147 q 449 1107 464 1111 q 424 1100 433 1103 q 390 1057 406 1093 l 378 1044 l 376 1039 "},"u":{"ha":842,"x_min":7,"x_max":913,"o":"m 181 610 q 7 100 -1 319 q 48 0 10 38 q 140 -51 86 -37 q 253 -56 194 -64 q 354 -21 313 -47 q 435 38 396 6 q 447 -27 419 -1 q 522 -59 475 -53 q 621 -50 568 -65 q 708 8 674 -35 q 753 136 729 60 q 913 601 854 476 q 910 644 922 622 q 876 681 899 665 q 824 699 853 696 q 775 689 796 703 q 729 676 754 675 q 680 676 704 676 q 635 669 656 676 q 606 635 614 661 l 564 568 l 543 529 q 489 433 514 481 q 275 193 403 274 q 326 356 299 275 q 401 506 354 436 q 406 590 424 553 q 352 643 389 626 q 267 653 315 660 q 181 610 219 647 "},"v":{"ha":707,"x_min":44,"x_max":786,"o":"m 307 617 q 303 628 304 624 q 253 681 290 667 q 206 693 231 688 l 189 693 q 103 644 126 689 q 90 602 93 625 q 85 557 88 579 q 78 510 82 535 q 71 454 74 485 q 58 363 68 424 q 44 13 15 89 q 101 -46 64 -24 q 182 -74 139 -68 q 358 -47 247 -119 q 445 23 406 -18 q 507 97 485 64 q 654 338 572 197 q 764 522 704 422 q 786 553 775 536 q 757 665 825 617 q 761 710 768 693 q 694 743 747 743 q 561 694 606 743 q 429 503 489 633 q 383 390 404 447 q 336 282 361 333 q 319 449 325 365 q 307 617 314 533 "}}}
